<?xml version="1.0" encoding="utf-8"?>
<!-- Generator: Adobe Illustrator 27.5.0, SVG Export Plug-In . SVG Version: 6.00 Build 0)  -->
<svg version="1.1" xmlns="http://www.w3.org/2000/svg" xmlns:xlink="http://www.w3.org/1999/xlink" x="0px" y="0px"
	 viewBox="0 0 500 500" style="enable-background:new 0 0 500 500;" xml:space="preserve">
<g id="Background_Simple">
	<g>
		<path style="fill:#92E3A9;" d="M459.243,137.521c-2.411-18.764-7.115-36.753-16.969-53.136
			c-18.319-30.458-51.232-48.852-84.648-58.185c-28.005-7.821-58.157-10.076-86.09-1.999c-30.66,8.865-56.387,29.286-83.997,45.296
			c-20.134,11.675-41.381,21.341-63.102,29.658c-17.58,6.731-39.923,10.502-54.371,23.287c-8.863,7.842-16.66,16.896-23.351,26.646
			c-26.971,39.307-35.761,89.531-31.594,136.407c2.903,32.666,11.886,65.714,32.036,91.587
			c28.273,36.304,76.798,54.193,122.591,49.684c51.969-5.118,101.247-36.186,152.932-28.731
			c25.727,3.711,50.35,16.933,76.226,14.474c25.508-2.424,47.345-19.963,62.732-40.451c12.341-16.432,20.553-36.296,21.313-56.976
			c0.823-22.397-9.315-42.814-14.401-64.198C459.658,213.496,464.092,175.265,459.243,137.521z"/>
		<path style="opacity:0.7;fill:#FFFFFF;" d="M459.243,137.521c-2.411-18.764-7.115-36.753-16.969-53.136
			c-18.319-30.458-51.232-48.852-84.648-58.185c-28.005-7.821-58.157-10.076-86.09-1.999c-30.66,8.865-56.387,29.286-83.997,45.296
			c-20.134,11.675-41.381,21.341-63.102,29.658c-17.58,6.731-39.923,10.502-54.371,23.287c-8.863,7.842-16.66,16.896-23.351,26.646
			c-26.971,39.307-35.761,89.531-31.594,136.407c2.903,32.666,11.886,65.714,32.036,91.587
			c28.273,36.304,76.798,54.193,122.591,49.684c51.969-5.118,101.247-36.186,152.932-28.731
			c25.727,3.711,50.35,16.933,76.226,14.474c25.508-2.424,47.345-19.963,62.732-40.451c12.341-16.432,20.553-36.296,21.313-56.976
			c0.823-22.397-9.315-42.814-14.401-64.198C459.658,213.496,464.092,175.265,459.243,137.521z"/>
	</g>
</g>
<g id="Furniture">
	<g>
		<g>
			
				<rect x="334.931" y="309.742" transform="matrix(-1 -1.224647e-16 1.224647e-16 -1 815.8026 624.9847)" style="fill:none;stroke:#263238;stroke-linecap:round;stroke-linejoin:round;stroke-miterlimit:10;" width="145.941" height="5.501"/>
			
				<rect x="341.7" y="315.401" transform="matrix(-1 -1.224647e-16 1.224647e-16 -1 815.8026 779.4005)" style="fill:none;stroke:#263238;stroke-linecap:round;stroke-linejoin:round;stroke-miterlimit:10;" width="132.403" height="148.6"/>
			<g>
				
					<rect x="346.462" y="322.314" transform="matrix(-1 -1.224647e-16 1.224647e-16 -1 815.9564 676.8706)" style="fill:none;stroke:#263238;stroke-linecap:round;stroke-linejoin:round;stroke-miterlimit:10;" width="123.032" height="32.243"/>
				
					<rect x="402.039" y="335.466" transform="matrix(-1 -1.224647e-16 1.224647e-16 -1 816.3806 676.8705)" style="fill:#263238;stroke:#263238;stroke-linecap:round;stroke-linejoin:round;stroke-miterlimit:10;" width="12.303" height="5.939"/>
			</g>
			<g>
				
					<rect x="346.462" y="363.042" transform="matrix(-1 -1.224647e-16 1.224647e-16 -1 815.9564 758.3261)" style="fill:none;stroke:#263238;stroke-linecap:round;stroke-linejoin:round;stroke-miterlimit:10;" width="123.032" height="32.243"/>
				
					<rect x="402.039" y="376.193" transform="matrix(-1 -1.224647e-16 1.224647e-16 -1 816.3806 758.326)" style="fill:#263238;stroke:#263238;stroke-linecap:round;stroke-linejoin:round;stroke-miterlimit:10;" width="12.303" height="5.94"/>
			</g>
			<g>
				
					<rect x="346.462" y="403.958" transform="matrix(-1 -1.224647e-16 1.224647e-16 -1 815.9564 840.1586)" style="fill:none;stroke:#263238;stroke-linecap:round;stroke-linejoin:round;stroke-miterlimit:10;" width="123.032" height="32.243"/>
				
					<rect x="402.039" y="417.109" transform="matrix(-1 -1.224647e-16 1.224647e-16 -1 816.3806 840.1585)" style="fill:#263238;stroke:#263238;stroke-linecap:round;stroke-linejoin:round;stroke-miterlimit:10;" width="12.303" height="5.939"/>
			</g>
		</g>
		<g>
			<path style="fill:#263238;" d="M413.962,244.728c1.491,0.652,5.14,0.57,5.143,0.57c0.038-0.001-0.784-2.389-0.853-2.533
				c-0.801-1.675-3.332-4.44-5.392-4.161c-1.484,0.201-2.309,1.686-1.974,3.083C411.227,243.112,412.691,244.172,413.962,244.728z"
				/>
			<path style="fill:#263238;" d="M450.867,245.53c0.032,0.02,0.664-2.425,0.686-2.584c0.256-1.839-0.33-5.541-2.202-6.445
				c-1.348-0.651-2.856,0.132-3.347,1.482c-0.502,1.379,0.134,3.071,0.888,4.235C447.776,243.584,450.865,245.529,450.867,245.53z"
				/>
			<path style="fill:#263238;" d="M461.757,232.308c-2.067-0.222-4.523,2.61-5.278,4.306c-0.065,0.147-0.822,2.556-0.784,2.555
				c0,0,0.035,0,0.044,0c-0.391,0.444-0.805,0.925-1.247,1.459c-0.808,0.993-1.713,2.123-2.614,3.419
				c-0.904,1.292-1.85,2.722-2.71,4.318c-0.865,1.598-1.692,3.324-2.315,5.212c-0.007,0.021-0.012,0.045-0.019,0.066
				c0.01-0.609-0.016-2.312-0.033-2.443c-0.238-1.841-1.781-5.258-3.826-5.636c-1.473-0.272-2.72,0.882-2.837,2.314
				c-0.12,1.462,0.941,2.926,1.975,3.85c1.166,1.042,4.403,2.05,4.661,2.13c-0.577,1.804-1.022,3.702-1.367,5.647
				c-0.198,1.112-0.364,2.238-0.515,3.37c-0.008-0.527-0.019-0.997-0.027-1.063c-0.239-1.841-1.781-5.258-3.826-5.635
				c-1.473-0.272-2.72,0.882-2.837,2.314c-0.12,1.463,0.941,2.926,1.975,3.85c1.049,0.937,3.791,1.853,4.52,2.085
				c-0.054,0.435-0.112,0.868-0.164,1.303c-0.25,2.086-0.489,4.169-0.787,6.205c-0.104,0.718-0.234,1.42-0.361,2.124
				c-0.007-0.468-0.017-0.862-0.025-0.922c-0.239-1.841-1.781-5.258-3.826-5.635c-1.473-0.272-2.72,0.881-2.837,2.314
				c-0.12,1.462,0.941,2.926,1.975,3.85c1.001,0.894,3.525,1.762,4.39,2.042c-0.152,0.716-0.302,1.434-0.482,2.122
				c-0.133,0.467-0.229,0.925-0.388,1.387c-0.148,0.46-0.296,0.915-0.441,1.366c-0.312,0.858-0.629,1.746-0.955,2.576
				c-0.222,0.579-0.444,1.126-0.667,1.678c0.112-0.713,0.303-2.113,0.306-2.232c0.029-1.233-0.409-3.238-1.281-4.647
				c0.005-0.182-0.005-0.364-0.034-0.544c-0.228-1.418-1.561-2.472-3.008-2.087c-2.009,0.535-3.283,4.061-3.378,5.914
				c-0.006,0.109,0.066,1.303,0.124,2.055c-0.101-0.437-0.194-0.862-0.304-1.311c-0.211-0.888-0.447-1.769-0.698-2.717
				c-0.137-0.454-0.276-0.912-0.416-1.374c-0.129-0.462-0.324-0.933-0.485-1.405c-0.397-1.086-0.853-2.167-1.336-3.247
				c0.777-0.186,3.529-0.888,4.634-1.736c1.1-0.844,2.266-2.225,2.256-3.692c-0.01-1.437-1.168-2.68-2.657-2.519
				c-2.066,0.224-3.86,3.516-4.235,5.335c-0.024,0.113-0.146,1.448-0.199,2.182c-0.296-0.647-0.587-1.293-0.907-1.938
				c-0.924-1.86-1.917-3.714-2.899-5.568c-0.301-0.568-0.594-1.137-0.89-1.706c0.277-0.063,3.566-0.826,4.803-1.776
				c1.1-0.844,2.266-2.225,2.256-3.692c-0.01-1.437-1.168-2.68-2.657-2.518c-2.067,0.225-3.86,3.517-4.235,5.335
				c-0.028,0.137-0.202,2.058-0.222,2.548c-0.651-1.253-1.288-2.508-1.865-3.77c-0.799-1.741-1.488-3.493-2.029-5.24
				c0.129-0.029,3.565-0.81,4.833-1.783c1.1-0.844,2.267-2.225,2.256-3.692c-0.01-1.437-1.168-2.68-2.657-2.519
				c-2.067,0.224-3.86,3.517-4.235,5.334c-0.025,0.12-0.158,1.584-0.206,2.281c-0.065,0.007-0.053,0.006-0.118,0.013
				c-0.557-1.879-0.861-3.768-1.057-5.551c-0.116-1.032-0.169-2.026-0.199-2.993c0.655-0.08,3.643-0.478,4.881-1.227
				c1.186-0.718,2.497-1.962,2.648-3.422c0.147-1.429-0.867-2.793-2.364-2.795c-2.079-0.004-4.223,3.072-4.795,4.837
				c-0.031,0.096-0.24,1.107-0.381,1.846c-0.007-0.437-0.022-0.887-0.02-1.306c0.003-1.572,0.102-3.011,0.201-4.285
				c0.062-0.724,0.132-1.377,0.204-1.988c0.602-0.414,3.006-2.111,3.745-3.324c0.722-1.184,1.312-2.892,0.773-4.257
				c-0.528-1.337-2.056-2.079-3.386-1.392c-1.847,0.955-2.332,4.672-2.027,6.503c0.026,0.158,0.724,2.585,0.755,2.564
				c0,0,0.029-0.02,0.036-0.025c-0.081,0.586-0.161,1.216-0.235,1.905c-0.126,1.274-0.258,2.715-0.295,4.294
				c-0.041,1.577-0.041,3.291,0.121,5.097c0.161,1.81,0.422,3.706,0.944,5.625c0.006,0.022,0.015,0.044,0.021,0.065
				c-0.327-0.514-1.289-1.92-1.375-2.019c-1.215-1.404-4.386-3.402-6.3-2.59c-1.379,0.585-1.782,2.236-1.09,3.495
				c0.707,1.286,2.399,1.922,3.771,2.122c1.547,0.225,4.804-0.719,5.062-0.795c0.514,1.823,1.189,3.652,1.975,5.465
				c0.448,1.037,0.931,2.068,1.429,3.095c-0.297-0.435-0.566-0.822-0.609-0.872c-1.215-1.404-4.387-3.402-6.3-2.59
				c-1.379,0.585-1.782,2.236-1.09,3.495c0.707,1.286,2.399,1.922,3.771,2.122c1.392,0.203,4.184-0.546,4.921-0.754
				c0.195,0.392,0.385,0.786,0.582,1.177c0.943,1.877,1.892,3.747,2.767,5.609c0.309,0.656,0.588,1.314,0.871,1.97
				c-0.264-0.386-0.49-0.709-0.53-0.755c-1.214-1.404-4.386-3.402-6.3-2.59c-1.379,0.585-1.782,2.236-1.09,3.495
				c0.707,1.286,2.399,1.922,3.771,2.122c1.328,0.194,3.912-0.475,4.788-0.718c0.269,0.681,0.539,1.363,0.769,2.035
				c0.147,0.463,0.32,0.898,0.441,1.371c0.13,0.466,0.259,0.926,0.386,1.383c0.213,0.888,0.438,1.803,0.624,2.675
				c0.134,0.605,0.25,1.184,0.37,1.768c-0.299-0.657-0.913-1.93-0.976-2.03c-0.988-1.572-3.82-4.027-5.835-3.514
				c-1.451,0.37-2.1,1.94-1.607,3.289c0.504,1.378,2.08,2.263,3.406,2.669c1.46,0.446,4.692,0.038,5.095-0.015
				c0.194,0.966,0.373,1.907,0.528,2.798c0.344,1.953,0.604,3.703,0.803,5.188h-8.19v17.226h21.533v-17.226h-8.326
				c0.54-1.199,1.132-2.562,1.749-4.072c0.381-0.925,0.769-1.921,1.158-2.947c0.391,0.082,3.591,0.732,5.082,0.395
				c1.352-0.306,2.99-1.071,3.595-2.407c0.593-1.309,0.062-2.923-1.357-3.4c-1.97-0.662-4.978,1.576-6.08,3.069
				c-0.065,0.088-0.663,1.123-1.031,1.782c0.157-0.42,0.314-0.826,0.47-1.261c0.315-0.857,0.603-1.722,0.917-2.651
				c0.136-0.454,0.273-0.913,0.411-1.376c0.147-0.456,0.245-0.957,0.371-1.44c0.268-1.125,0.485-2.278,0.677-3.445
				c0.751,0.274,3.433,1.207,4.823,1.109c1.383-0.097,3.118-0.605,3.918-1.835c0.784-1.204,0.504-2.88-0.827-3.566
				c-1.847-0.953-5.159,0.804-6.475,2.113c-0.082,0.081-0.921,1.127-1.37,1.71c0.11-0.702,0.224-1.402,0.312-2.117
				c0.256-2.061,0.451-4.155,0.654-6.243c0.062-0.64,0.132-1.276,0.199-1.914c0.266,0.1,3.43,1.278,4.986,1.169
				c1.383-0.097,3.118-0.605,3.919-1.835c0.784-1.204,0.504-2.88-0.827-3.566c-1.847-0.953-5.16,0.804-6.475,2.113
				c-0.099,0.099-1.303,1.605-1.591,2.003c0.148-1.404,0.309-2.802,0.524-4.174c0.294-1.893,0.686-3.734,1.198-5.49
				c0.124,0.047,3.42,1.291,5.014,1.179c1.383-0.097,3.118-0.605,3.919-1.835c0.784-1.204,0.504-2.88-0.827-3.566
				c-1.848-0.953-5.159,0.804-6.475,2.113c-0.086,0.086-1.005,1.232-1.429,1.788c-0.058-0.03-0.047-0.025-0.105-0.055
				c0.571-1.874,1.361-3.617,2.18-5.213c0.473-0.925,0.977-1.783,1.485-2.606c0.59,0.295,3.302,1.612,4.748,1.669
				c1.385,0.055,3.165-0.259,4.096-1.393c0.912-1.111,0.818-2.807-0.43-3.636c-1.732-1.15-5.216,0.232-6.668,1.389
				c-0.079,0.063-0.81,0.791-1.336,1.329c0.235-0.368,0.471-0.752,0.704-1.101c0.869-1.31,1.746-2.455,2.531-3.464
				c0.451-0.57,0.87-1.076,1.267-1.546c0.73-0.013,3.671-0.102,4.957-0.706c1.255-0.589,2.69-1.689,2.993-3.125
				C464.111,233.931,463.246,232.468,461.757,232.308z M438.874,287.836c-0.748,1.722-1.459,3.249-2.087,4.551h-2.182
				c-0.237-1.536-0.546-3.364-0.954-5.414c-0.193-0.981-0.418-2.026-0.66-3.097c0.243-0.096,1.621-0.654,2.842-1.336
				c1.064,1.152,3.79,2.501,4.143,2.672C439.605,286.124,439.236,287.008,438.874,287.836z"/>
		</g>
	</g>
</g>
<g id="Plant">
	<g>
		<g>
			<line style="fill:none;stroke:#263238;stroke-width:2;stroke-miterlimit:10;" x1="28.47" y1="316.956" x2="40.068" y2="428.09"/>
			<g>
				<g>
					
						<line style="fill:none;stroke:#263238;stroke-width:2;stroke-miterlimit:10;" x1="38.199" y1="406.822" x2="32.941" y2="401.268"/>
					<path style="fill:#92E3A9;stroke:#263238;stroke-miterlimit:10;" d="M34.539,402.932c0,0,0.151-2.457-2.093-4.46
						c-1.35-1.205-8.452-4.193-9.126-1.692C22.587,399.501,29.857,404.844,34.539,402.932z"/>
					
						<line style="fill:none;stroke:#263238;stroke-width:0.5;stroke-miterlimit:10;" x1="34.539" y1="402.932" x2="27.777" y2="398.718"/>
				</g>
				<g>
					
						<line style="fill:none;stroke:#263238;stroke-width:2;stroke-miterlimit:10;" x1="39.518" y1="419.461" x2="34.26" y2="413.907"/>
					<path style="fill:#92E3A9;stroke:#263238;stroke-miterlimit:10;" d="M35.858,415.571c0,0,0.151-2.457-2.093-4.46
						c-1.349-1.205-8.452-4.193-9.126-1.692C23.906,412.14,31.176,417.484,35.858,415.571z"/>
					
						<line style="fill:none;stroke:#263238;stroke-width:0.5;stroke-miterlimit:10;" x1="35.858" y1="415.571" x2="29.096" y2="411.357"/>
				</g>
				<g>
					
						<line style="fill:none;stroke:#263238;stroke-width:2;stroke-miterlimit:10;" x1="34.98" y1="375.98" x2="29.722" y2="370.426"/>
					<path style="fill:#92E3A9;stroke:#263238;stroke-miterlimit:10;" d="M31.32,372.09c0,0,0.151-2.457-2.093-4.46
						c-1.35-1.205-8.452-4.193-9.126-1.692C19.368,368.659,26.638,374.003,31.32,372.09z"/>
					
						<line style="fill:none;stroke:#263238;stroke-width:0.5;stroke-miterlimit:10;" x1="31.32" y1="372.09" x2="24.558" y2="367.876"/>
				</g>
				<g>
					
						<line style="fill:none;stroke:#263238;stroke-width:2;stroke-miterlimit:10;" x1="36.299" y1="388.619" x2="31.042" y2="383.065"/>
					<path style="fill:#92E3A9;stroke:#263238;stroke-miterlimit:10;" d="M32.639,384.729c0,0,0.15-2.457-2.093-4.46
						c-1.35-1.205-8.452-4.193-9.126-1.692C20.687,381.298,27.957,386.642,32.639,384.729z"/>
					
						<line style="fill:none;stroke:#263238;stroke-width:0.5;stroke-miterlimit:10;" x1="32.639" y1="384.729" x2="25.877" y2="380.516"/>
				</g>
				<g>
					
						<line style="fill:none;stroke:#263238;stroke-width:2;stroke-miterlimit:10;" x1="32.838" y1="355.448" x2="27.58" y2="349.895"/>
					<path style="fill:#92E3A9;stroke:#263238;stroke-miterlimit:10;" d="M29.177,351.559c0,0,0.15-2.457-2.093-4.46
						c-1.35-1.205-8.452-4.193-9.126-1.692C17.225,348.128,24.495,353.471,29.177,351.559z"/>
					
						<line style="fill:none;stroke:#263238;stroke-width:0.5;stroke-miterlimit:10;" x1="29.177" y1="351.559" x2="22.415" y2="347.345"/>
				</g>
				<g>
					
						<line style="fill:none;stroke:#263238;stroke-width:2;stroke-miterlimit:10;" x1="30.686" y1="334.827" x2="25.428" y2="329.274"/>
					<path style="fill:#92E3A9;stroke:#263238;stroke-miterlimit:10;" d="M27.025,330.938c0,0,0.15-2.457-2.093-4.46
						c-1.35-1.205-8.452-4.193-9.126-1.692C15.073,327.507,22.343,332.85,27.025,330.938z"/>
					
						<line style="fill:none;stroke:#263238;stroke-width:0.5;stroke-miterlimit:10;" x1="27.025" y1="330.938" x2="20.263" y2="326.724"/>
				</g>
				<g>
					
						<line style="fill:none;stroke:#263238;stroke-width:2;stroke-miterlimit:10;" x1="37.315" y1="399.343" x2="41.313" y2="392.824"/>
					<path style="fill:#92E3A9;stroke:#263238;stroke-miterlimit:10;" d="M40.094,394.782c0,0-0.654-2.372,1.127-4.796
						c1.072-1.458,7.404-5.848,8.58-3.54C51.08,388.957,45.07,395.686,40.094,394.782z"/>
					
						<line style="fill:none;stroke:#263238;stroke-width:0.5;stroke-miterlimit:10;" x1="40.094" y1="394.782" x2="46.182" y2="388.962"/>
				</g>
				<g>
					
						<line style="fill:none;stroke:#263238;stroke-width:2;stroke-miterlimit:10;" x1="33.844" y1="366.083" x2="37.842" y2="359.564"/>
					<path style="fill:#92E3A9;stroke:#263238;stroke-miterlimit:10;" d="M36.623,361.522c0,0-0.654-2.372,1.127-4.796
						c1.072-1.458,7.404-5.848,8.58-3.54C47.609,355.697,41.599,362.426,36.623,361.522z"/>
					
						<line style="fill:none;stroke:#263238;stroke-width:0.5;stroke-miterlimit:10;" x1="36.623" y1="361.522" x2="42.711" y2="355.702"/>
				</g>
				<g>
					
						<line style="fill:none;stroke:#263238;stroke-width:2;stroke-miterlimit:10;" x1="32.319" y1="351.467" x2="36.317" y2="344.947"/>
					<path style="fill:#92E3A9;stroke:#263238;stroke-miterlimit:10;" d="M35.097,346.905c0,0-0.654-2.373,1.127-4.796
						c1.072-1.458,7.404-5.848,8.581-3.54C46.083,341.08,40.074,347.81,35.097,346.905z"/>
					
						<line style="fill:none;stroke:#263238;stroke-width:0.5;stroke-miterlimit:10;" x1="35.097" y1="346.905" x2="41.186" y2="341.086"/>
				</g>
				<g>
					
						<line style="fill:none;stroke:#263238;stroke-width:2;stroke-miterlimit:10;" x1="30.083" y1="330.039" x2="34.081" y2="323.52"/>
					<path style="fill:#92E3A9;stroke:#263238;stroke-miterlimit:10;" d="M32.861,325.477c0,0-0.654-2.372,1.127-4.796
						c1.072-1.458,7.404-5.848,8.58-3.54C43.847,319.652,37.837,326.382,32.861,325.477z"/>
					
						<line style="fill:none;stroke:#263238;stroke-width:0.5;stroke-miterlimit:10;" x1="32.861" y1="325.477" x2="38.95" y2="319.658"/>
					<path style="fill:#92E3A9;stroke:#263238;stroke-miterlimit:10;" d="M28.373,316.339c0,0-0.654-2.372,1.127-4.796
						c1.072-1.458,7.404-5.848,8.58-3.54C39.359,310.514,33.349,317.243,28.373,316.339z"/>
					
						<line style="fill:none;stroke:#263238;stroke-width:0.5;stroke-miterlimit:10;" x1="28.373" y1="316.339" x2="34.461" y2="310.519"/>
					<path style="fill:#92E3A9;stroke:#263238;stroke-miterlimit:10;" d="M28.726,316.59c0,0-2.428,0.402-4.651-1.624
						c-1.338-1.219-5.04-7.977-2.621-8.904C24.085,305.053,30.147,311.736,28.726,316.59z"/>
					
						<line style="fill:none;stroke:#263238;stroke-width:0.5;stroke-miterlimit:10;" x1="28.726" y1="316.59" x2="23.576" y2="309.924"/>
				</g>
			</g>
		</g>
		<g>
			
				<line style="fill:none;stroke:#263238;stroke-width:2;stroke-miterlimit:10;" x1="59.061" y1="332.261" x2="47.528" y2="443.401"/>
			<g>
				<g>
					
						<line style="fill:none;stroke:#263238;stroke-width:2;stroke-miterlimit:10;" x1="50.078" y1="422.204" x2="46.076" y2="415.687"/>
					<path style="fill:#92E3A9;stroke:#263238;stroke-miterlimit:10;" d="M47.297,417.644c0,0,0.653-2.373-1.13-4.795
						c-1.072-1.457-7.408-5.844-8.583-3.535C36.307,411.826,42.321,418.552,47.297,417.644z"/>
					
						<line style="fill:none;stroke:#263238;stroke-width:0.5;stroke-miterlimit:10;" x1="47.297" y1="417.644" x2="41.547" y2="412.129"/>
				</g>
				<g>
					
						<line style="fill:none;stroke:#263238;stroke-width:2;stroke-miterlimit:10;" x1="53.278" y1="391.36" x2="49.277" y2="384.843"/>
					<path style="fill:#92E3A9;stroke:#263238;stroke-miterlimit:10;" d="M50.497,386.801c0,0,0.653-2.373-1.13-4.795
						c-1.072-1.457-7.408-5.844-8.583-3.535C39.508,380.982,45.522,387.708,50.497,386.801z"/>
					
						<line style="fill:none;stroke:#263238;stroke-width:0.5;stroke-miterlimit:10;" x1="50.497" y1="386.801" x2="44.748" y2="381.285"/>
				</g>
				<g>
					<line style="fill:none;stroke:#263238;stroke-width:2;stroke-miterlimit:10;" x1="51.967" y1="404" x2="47.965" y2="397.483"/>
					<path style="fill:#92E3A9;stroke:#263238;stroke-miterlimit:10;" d="M49.186,399.44c0,0,0.653-2.373-1.13-4.795
						c-1.072-1.457-7.408-5.844-8.583-3.535C38.196,393.622,44.21,400.348,49.186,399.44z"/>
					
						<line style="fill:none;stroke:#263238;stroke-width:0.5;stroke-miterlimit:10;" x1="49.186" y1="399.44" x2="43.436" y2="393.925"/>
				</g>
				<g>
					
						<line style="fill:none;stroke:#263238;stroke-width:2;stroke-miterlimit:10;" x1="55.409" y1="370.828" x2="51.407" y2="364.311"/>
					<path style="fill:#92E3A9;stroke:#263238;stroke-miterlimit:10;" d="M52.628,366.268c0,0,0.653-2.373-1.13-4.795
						c-1.072-1.457-7.408-5.844-8.583-3.535C41.638,360.45,47.652,367.175,52.628,366.268z"/>
					
						<line style="fill:none;stroke:#263238;stroke-width:0.5;stroke-miterlimit:10;" x1="52.628" y1="366.268" x2="46.878" y2="360.752"/>
				</g>
				<g>
					
						<line style="fill:none;stroke:#263238;stroke-width:2;stroke-miterlimit:10;" x1="57.549" y1="350.206" x2="53.547" y2="343.689"/>
					<path style="fill:#92E3A9;stroke:#263238;stroke-miterlimit:10;" d="M54.768,345.646c0,0,0.653-2.373-1.13-4.795
						c-1.072-1.457-7.408-5.844-8.583-3.535C43.778,339.827,49.792,346.553,54.768,345.646z"/>
					
						<line style="fill:none;stroke:#263238;stroke-width:0.5;stroke-miterlimit:10;" x1="54.768" y1="345.646" x2="49.018" y2="340.13"/>
				</g>
				<g>
					
						<line style="fill:none;stroke:#263238;stroke-width:2;stroke-miterlimit:10;" x1="50.753" y1="414.704" x2="56.007" y2="409.148"/>
					<path style="fill:#92E3A9;stroke:#263238;stroke-miterlimit:10;" d="M54.411,410.813c0,0-0.152-2.456,2.09-4.461
						c1.349-1.206,8.45-4.198,9.125-1.697C66.361,407.375,59.094,412.722,54.411,410.813z"/>
					
						<line style="fill:none;stroke:#263238;stroke-width:0.5;stroke-miterlimit:10;" x1="54.411" y1="410.813" x2="61.568" y2="406.371"/>
				</g>
				<g>
					
						<line style="fill:none;stroke:#263238;stroke-width:2;stroke-miterlimit:10;" x1="54.204" y1="381.442" x2="59.459" y2="375.885"/>
					<path style="fill:#92E3A9;stroke:#263238;stroke-miterlimit:10;" d="M57.862,377.55c0,0-0.152-2.457,2.09-4.461
						c1.349-1.206,8.45-4.198,9.125-1.697C69.813,374.112,62.546,379.46,57.862,377.55z"/>
					
						<line style="fill:none;stroke:#263238;stroke-width:0.5;stroke-miterlimit:10;" x1="57.862" y1="377.55" x2="65.019" y2="373.109"/>
				</g>
				<g>
					
						<line style="fill:none;stroke:#263238;stroke-width:2;stroke-miterlimit:10;" x1="55.721" y1="366.825" x2="60.976" y2="361.268"/>
					<path style="fill:#92E3A9;stroke:#263238;stroke-miterlimit:10;" d="M59.379,362.933c0,0-0.152-2.457,2.09-4.461
						c1.349-1.206,8.45-4.198,9.126-1.697C71.329,359.495,64.062,364.843,59.379,362.933z"/>
					
						<line style="fill:none;stroke:#263238;stroke-width:0.5;stroke-miterlimit:10;" x1="59.379" y1="362.933" x2="66.536" y2="358.492"/>
				</g>
				<g>
					
						<line style="fill:none;stroke:#263238;stroke-width:2;stroke-miterlimit:10;" x1="57.945" y1="345.395" x2="63.199" y2="339.839"/>
					<path style="fill:#92E3A9;stroke:#263238;stroke-miterlimit:10;" d="M61.603,341.504c0,0-0.152-2.457,2.09-4.461
						c1.349-1.206,8.45-4.198,9.125-1.697C73.553,338.066,66.286,343.414,61.603,341.504z"/>
					
						<line style="fill:none;stroke:#263238;stroke-width:0.5;stroke-miterlimit:10;" x1="61.603" y1="341.504" x2="68.759" y2="337.063"/>
					<path style="fill:#92E3A9;stroke:#263238;stroke-miterlimit:10;" d="M59.092,331.637c0,0-0.152-2.457,2.09-4.461
						c1.349-1.206,8.45-4.198,9.125-1.697C71.042,328.199,63.775,333.547,59.092,331.637z"/>
					
						<line style="fill:none;stroke:#263238;stroke-width:0.5;stroke-miterlimit:10;" x1="59.092" y1="331.637" x2="66.249" y2="327.195"/>
					<path style="fill:#92E3A9;stroke:#263238;stroke-miterlimit:10;" d="M59.386,331.955c0,0-2.459-0.106-4.217-2.546
						c-1.058-1.468-3.289-8.844-0.731-9.253C57.22,319.71,61.776,327.498,59.386,331.955z"/>
					
						<line style="fill:none;stroke:#263238;stroke-width:0.5;stroke-miterlimit:10;" x1="59.386" y1="331.955" x2="55.72" y2="324.372"/>
				</g>
			</g>
		</g>
		
			<line style="fill:none;stroke:#263238;stroke-width:2;stroke-miterlimit:10;" x1="45.845" y1="287.004" x2="45.845" y2="427.548"/>
		<g>
			<g>
				
					<line style="fill:none;stroke:#263238;stroke-width:2;stroke-miterlimit:10;" x1="45.957" y1="406.417" x2="41.303" y2="400.347"/>
				<path style="fill:#92E3A9;stroke:#263238;stroke-miterlimit:10;" d="M42.72,402.168c0,0,0.405-2.428-1.618-4.653
					c-1.217-1.339-7.972-5.048-8.902-2.63C31.188,397.515,37.864,403.584,42.72,402.168z"/>
				
					<line style="fill:none;stroke:#263238;stroke-width:0.5;stroke-miterlimit:10;" x1="42.72" y1="402.168" x2="36.432" y2="397.275"/>
			</g>
			<g>
				
					<line style="fill:none;stroke:#263238;stroke-width:2;stroke-miterlimit:10;" x1="45.957" y1="380.004" x2="41.303" y2="373.935"/>
				<path style="fill:#92E3A9;stroke:#263238;stroke-miterlimit:10;" d="M42.72,375.756c0,0,0.405-2.428-1.618-4.653
					c-1.217-1.339-7.972-5.048-8.902-2.63C31.188,371.103,37.864,377.172,42.72,375.756z"/>
				
					<line style="fill:none;stroke:#263238;stroke-width:0.5;stroke-miterlimit:10;" x1="42.72" y1="375.756" x2="36.432" y2="370.863"/>
			</g>
			<g>
				
					<line style="fill:none;stroke:#263238;stroke-width:2;stroke-miterlimit:10;" x1="45.957" y1="348.995" x2="41.303" y2="342.926"/>
				<path style="fill:#92E3A9;stroke:#263238;stroke-miterlimit:10;" d="M42.72,344.747c0,0,0.405-2.428-1.618-4.653
					c-1.217-1.339-7.972-5.048-8.902-2.63C31.188,340.094,37.864,346.163,42.72,344.747z"/>
				
					<line style="fill:none;stroke:#263238;stroke-width:0.5;stroke-miterlimit:10;" x1="42.72" y1="344.747" x2="36.432" y2="339.854"/>
			</g>
			<g>
				
					<line style="fill:none;stroke:#263238;stroke-width:2;stroke-miterlimit:10;" x1="45.957" y1="328.352" x2="41.303" y2="322.283"/>
				<path style="fill:#92E3A9;stroke:#263238;stroke-miterlimit:10;" d="M42.72,324.104c0,0,0.405-2.428-1.618-4.653
					c-1.217-1.339-7.972-5.048-8.902-2.63C31.188,319.451,37.864,325.52,42.72,324.104z"/>
				
					<line style="fill:none;stroke:#263238;stroke-width:0.5;stroke-miterlimit:10;" x1="42.72" y1="324.104" x2="36.432" y2="319.211"/>
			</g>
			<g>
				
					<line style="fill:none;stroke:#263238;stroke-width:2;stroke-miterlimit:10;" x1="45.957" y1="307.619" x2="41.303" y2="301.55"/>
				<path style="fill:#92E3A9;stroke:#263238;stroke-miterlimit:10;" d="M42.72,303.371c0,0,0.405-2.428-1.618-4.653
					c-1.217-1.339-7.972-5.048-8.902-2.63C31.188,298.718,37.864,304.787,42.72,303.371z"/>
				
					<line style="fill:none;stroke:#263238;stroke-width:0.5;stroke-miterlimit:10;" x1="42.72" y1="303.371" x2="36.432" y2="298.478"/>
			</g>
			<g>
				
					<line style="fill:none;stroke:#263238;stroke-width:2;stroke-miterlimit:10;" x1="45.854" y1="414.482" x2="50.507" y2="408.413"/>
				<path style="fill:#92E3A9;stroke:#263238;stroke-miterlimit:10;" d="M49.091,410.233c0,0-0.405-2.428,1.618-4.653
					c1.217-1.339,7.972-5.048,8.902-2.63C60.622,405.58,53.946,411.649,49.091,410.233z"/>
				
					<line style="fill:none;stroke:#263238;stroke-width:0.5;stroke-miterlimit:10;" x1="49.091" y1="410.233" x2="55.751" y2="405.077"/>
			</g>
			<g>
				
					<line style="fill:none;stroke:#263238;stroke-width:2;stroke-miterlimit:10;" x1="45.854" y1="372.475" x2="50.507" y2="366.406"/>
				<path style="fill:#92E3A9;stroke:#263238;stroke-miterlimit:10;" d="M49.091,368.226c0,0-0.405-2.428,1.618-4.653
					c1.217-1.339,7.972-5.048,8.902-2.63C60.622,363.573,53.946,369.643,49.091,368.226z"/>
				
					<line style="fill:none;stroke:#263238;stroke-width:0.5;stroke-miterlimit:10;" x1="49.091" y1="368.226" x2="55.751" y2="363.07"/>
			</g>
			<g>
				
					<line style="fill:none;stroke:#263238;stroke-width:2;stroke-miterlimit:10;" x1="45.854" y1="351.742" x2="50.507" y2="345.673"/>
				<path style="fill:#92E3A9;stroke:#263238;stroke-miterlimit:10;" d="M49.091,347.493c0,0-0.405-2.428,1.618-4.653
					c1.217-1.339,7.972-5.048,8.902-2.63C60.622,342.841,53.946,348.91,49.091,347.493z"/>
				
					<line style="fill:none;stroke:#263238;stroke-width:0.5;stroke-miterlimit:10;" x1="49.091" y1="347.493" x2="55.751" y2="342.337"/>
			</g>
			<g>
				
					<line style="fill:none;stroke:#263238;stroke-width:2;stroke-miterlimit:10;" x1="45.854" y1="324.338" x2="50.507" y2="318.269"/>
				<path style="fill:#92E3A9;stroke:#263238;stroke-miterlimit:10;" d="M49.091,320.09c0,0-0.405-2.428,1.618-4.653
					c1.217-1.339,7.972-5.048,8.902-2.63C60.622,315.437,53.946,321.506,49.091,320.09z"/>
				
					<line style="fill:none;stroke:#263238;stroke-width:0.5;stroke-miterlimit:10;" x1="49.091" y1="320.09" x2="55.751" y2="314.934"/>
			</g>
			<g>
				
					<line style="fill:none;stroke:#263238;stroke-width:2;stroke-miterlimit:10;" x1="45.854" y1="302.794" x2="50.507" y2="296.725"/>
				<path style="fill:#92E3A9;stroke:#263238;stroke-miterlimit:10;" d="M49.091,298.546c0,0-0.405-2.428,1.618-4.653
					c1.217-1.339,7.972-5.048,8.902-2.63C60.622,293.893,53.946,299.962,49.091,298.546z"/>
				
					<line style="fill:none;stroke:#263238;stroke-width:0.5;stroke-miterlimit:10;" x1="49.091" y1="298.546" x2="55.751" y2="293.389"/>
				<path style="fill:#92E3A9;stroke:#263238;stroke-miterlimit:10;" d="M45.575,288.99c0,0-0.405-2.428,1.618-4.653
					c1.217-1.339,7.971-5.048,8.902-2.63C57.107,284.337,50.431,290.407,45.575,288.99z"/>
				
					<line style="fill:none;stroke:#263238;stroke-width:0.5;stroke-miterlimit:10;" x1="45.575" y1="288.99" x2="52.235" y2="283.834"/>
				<path style="fill:#92E3A9;stroke:#263238;stroke-miterlimit:10;" d="M45.9,289.277c0,0-2.457,0.148-4.458-2.097
					c-1.204-1.351-4.184-8.457-1.682-9.128C42.482,277.321,47.818,284.597,45.9,289.277z"/>
				
					<line style="fill:none;stroke:#263238;stroke-width:0.5;stroke-miterlimit:10;" x1="45.9" y1="289.277" x2="41.471" y2="282.113"/>
			</g>
		</g>
		<polygon style="fill:#263238;stroke:#263238;stroke-miterlimit:10;" points="51.627,464 36.742,464 34.882,426.409 
			53.487,426.409 		"/>
	</g>
</g>
<g id="Picture">
	<g>
		<polyline style="fill:none;stroke:#263238;stroke-miterlimit:10;" points="115.078,176.179 25.662,176.179 25.662,33.826 
			136.372,33.826 136.372,176.179 120.894,176.179 		"/>
		<rect x="29.677" y="38.988" style="fill:none;stroke:#263238;stroke-miterlimit:10;" width="102.68" height="132.029"/>
		<path style="fill:none;stroke:#263238;stroke-miterlimit:10;" d="M50.247,75.152c1.721,1.594,3.652,3.139,5.817,4.608
			c23.226,15.76,62.627,8.295,75.898,30.691"/>
		<path style="fill:none;stroke:#263238;stroke-miterlimit:10;" d="M36.572,39.53c0,0-2.7,17.699,10.78,32.687"/>
		<path style="fill:none;stroke:#263238;stroke-miterlimit:10;" d="M45.37,112.261c11.329-5.984,25.999-10.231,33.506,1.923
			c8.71,14.101-31.521,38.986-31.521,56.82"/>
		<path style="fill:none;stroke:#263238;stroke-miterlimit:10;" d="M29.936,122.479c0,0,5.168-4.315,12.301-8.476"/>
		<path style="fill:none;stroke:#263238;stroke-miterlimit:10;" d="M83.438,39.53c0,0,14.931,23.226,48.94,17.004"/>
		<path style="fill:none;stroke:#263238;stroke-miterlimit:10;" d="M87.9,62.341C87.966,62.885,88,63.438,88,64
			c0,7.559-6.128,13.687-13.687,13.687c-7.559,0-13.687-6.128-13.687-13.687s6.128-13.687,13.687-13.687
			c5.248,0,9.806,2.954,12.103,7.289"/>
		<path style="fill:none;stroke:#263238;stroke-miterlimit:10;" d="M122.009,82.456c0,3.55-2.878,6.428-6.428,6.428
			c-3.55,0-6.429-2.878-6.429-6.428c0-3.55,2.878-6.429,6.429-6.429C119.131,76.028,122.009,78.906,122.009,82.456z"/>
		<path style="fill:none;stroke:#263238;stroke-miterlimit:10;" d="M122.093,125.826c3.674,0.959,7.039,2.685,9.911,4.997"/>
		<path style="fill:none;stroke:#263238;stroke-miterlimit:10;" d="M97.456,171.095c-5.301-4.853-8.626-11.83-8.626-19.584
			c0-14.66,11.884-26.544,26.544-26.544c0.514,0,1.024,0.015,1.53,0.043"/>
	</g>
</g>
<g id="Floor">
	<g>
		<line style="fill:none;stroke:#263238;stroke-miterlimit:10;" x1="322" y1="464" x2="481" y2="464"/>
		<line style="fill:none;stroke:#263238;stroke-miterlimit:10;" x1="16" y1="464" x2="314" y2="464"/>
	</g>
</g>
<g id="Device">
	<g>
		<rect x="193.702" y="42.499" style="fill:#FFFFFF;" width="201.826" height="373.89"/>
		<rect x="193.702" y="352.627" style="fill:#DEDEDE;" width="201.826" height="63.762"/>
		<g>
			<path style="fill:#263238;" d="M401.588,116.062c1.377,0,2.493-1.116,2.493-2.493V88.638c0-1.377-1.116-2.493-2.493-2.493
				c-0.16,0-0.316,0.018-0.468,0.047V39.56c0-8.877-7.197-16.074-16.074-16.074h-177.15c-8.878,0-16.074,7.197-16.074,16.074
				v376.294c0,8.877,7.197,16.074,16.074,16.074h177.15c8.878,0,16.074-7.197,16.074-16.074V186.928
				c0.152,0.029,0.307,0.047,0.468,0.047c1.377,0,2.493-1.116,2.493-2.493v-24.93c0-1.377-1.116-2.493-2.493-2.493
				c-0.16,0-0.316,0.018-0.468,0.047v-5.634c0.152,0.029,0.307,0.047,0.468,0.047c1.377,0,2.493-1.116,2.493-2.493v-24.93
				c0-1.377-1.116-2.493-2.493-2.493c-0.16,0-0.316,0.018-0.468,0.047v-5.634C401.272,116.043,401.427,116.062,401.588,116.062z
				 M391.811,407.685H201.13V51.223h190.682V407.685z"/>
			<g>
				<g>
					
						<rect x="369.514" y="54.921" style="fill:none;stroke:#263238;stroke-width:0.8211;stroke-linecap:round;stroke-linejoin:round;stroke-miterlimit:10;" width="15.81" height="8.67"/>
					
						<rect x="369.514" y="54.921" style="fill:#263238;stroke:#263238;stroke-width:0.7251;stroke-linecap:round;stroke-linejoin:round;stroke-miterlimit:10;" width="12.33" height="8.67"/>
					
						<rect x="385.291" y="57.347" style="fill:#263238;stroke:#263238;stroke-width:0.7251;stroke-linecap:round;stroke-linejoin:round;stroke-miterlimit:10;" width="2.227" height="3.818"/>
				</g>
				<g>
					
						<rect x="205.423" y="57.611" style="fill:#263238;stroke:#263238;stroke-width:0.8831;stroke-linecap:round;stroke-linejoin:round;stroke-miterlimit:10;" width="2.898" height="4.969"/>
					
						<rect x="209.978" y="55.866" style="fill:#263238;stroke:#263238;stroke-width:0.8831;stroke-linecap:round;stroke-linejoin:round;stroke-miterlimit:10;" width="2.899" height="6.714"/>
					
						<rect x="214.533" y="53.804" style="fill:#263238;stroke:#263238;stroke-width:0.8831;stroke-linecap:round;stroke-linejoin:round;stroke-miterlimit:10;" width="2.899" height="8.776"/>
				</g>
			</g>
			<g>
				<g>
					<rect x="204.204" y="68.413" style="fill:#92E3A9;" width="183.107" height="48.119"/>
				</g>
				<line style="fill:none;stroke:#FFFFFF;stroke-miterlimit:10;" x1="250.477" y1="75.34" x2="250.477" y2="110.673"/>
				<line style="fill:none;stroke:#FFFFFF;stroke-miterlimit:10;" x1="297.143" y1="75.34" x2="297.143" y2="110.673"/>
				<line style="fill:none;stroke:#FFFFFF;stroke-miterlimit:10;" x1="343.81" y1="75.34" x2="343.81" y2="110.673"/>
			</g>
		</g>
		<path style="opacity:0.15;fill:#FFFFFF;" d="M399.468,186.928c0.152,0.029,0.308,0.047,0.468,0.047
			c1.377,0,2.493-1.116,2.493-2.493v-8.933l-12.269,21.636v210.5H270.79l-13.747,24.243h126.351c8.877,0,16.074-7.197,16.074-16.074
			V186.928z"/>
		<g>
			<g>
				<path style="fill:#263238;" d="M288.727,282.432c0-3.826,0-7.652-0.001-11.479l-0.014,0.013c1.902,0,3.804,0,5.706,0
					c0-1.95,0-3.832,0-5.747c-1.925,0-3.815,0-5.706,0l0.014,0.013c-0.005-1.915-0.01-3.83-0.016-5.745c3.813,0,7.627,0,11.493,0
					c0-1.938,0-3.822,0-5.705c1.924,0,3.796,0,5.72,0c0,1.906,0,3.789,0,5.676c1.936,0,3.819,0,5.737,0c0-3.835,0-7.637,0-11.439
					l-0.014,0.014c0.242-0.003,0.485-0.008,0.727-0.008c5.495-0.003,10.989-0.006,16.484-0.008c0,1.902,0,3.804,0,5.709
					c1.935,0,3.817,0,5.692,0c0-1.914,0-3.796,0-5.695c-1.926,0-3.816,0-5.706,0c0-1.904,0-3.807,0-5.763c-3.852,0-7.646,0-11.476,0
					c0-3.836,0-7.619,0-11.41c-5.741,0-11.446,0-17.204,0c0,1.916,0,3.8,0,5.718c-3.836,0-7.619,0-11.412,0c0,3.83,0,7.624,0,11.472
					c1.916,0,3.8,0,5.674,0c0,1.926,0,3.798,0,5.723c-1.91,0-3.794,0-5.701,0c0,1.946,0,3.838,0,5.73c-1.892,0-3.783,0-5.728,0
					c0-1.922,0-3.805,0-5.739c-5.757,0-11.461,0-17.188,0c0-1.923,0-3.794,0-5.717c5.705,0,11.41,0,17.16,0
					c0-15.308,0-30.564,0-45.877c1.949,0,3.852,0,5.756,0l-0.014-0.014c0.003,5.52,0.005,11.04,0.008,16.559
					c0,0.193,0,0.385,0,0.611c1.909,0,3.792,0,5.727,0c0-3.796,0-7.59,0-11.408c1.923,0,3.795,0,5.718,0c0,3.79,0,7.584,0,11.451
					c1.954,0,3.857,0,5.76,0l-0.014-0.014c0,1.892,0,3.784,0,5.727c9.567,0,19.094,0,28.656,0c0,1.923,0,3.795,0,5.721
					c1.919,0,3.803,0,5.744,0c0,1.956,0,3.86,0,5.764l0.014-0.013c-1.902,0-3.804,0-5.706,0c0,1.95,0,3.832,0,5.747
					c1.925,0,3.815,0,5.706,0l-0.014-0.013c0,3.802,0,7.605,0,11.481c1.94,0,3.843,0,5.746,0l-0.014-0.014c0,3.8,0,7.6,0,11.451
					c-1.896,0-3.778,0-5.693,0c0,3.842,0,7.634,0,11.496c1.902,0,3.804,0,5.707,0l-0.014-0.014c0,1.892,0,3.784,0,5.728
					c3.834,0,7.629,0,11.449,0c0,1.925,0,3.797,0,5.721c-5.699,0-11.404,0-17.162,0c0,3.846,0,7.641,0,11.462
					c-1.925,0-3.797,0-5.722,0c0-1.874,0-3.758,0-5.715c-3.867,0-7.681,0-11.496,0l0.014,0.014c0-1.892,0-3.784,0-5.729
					c-1.923,0-3.807,0-5.716,0c0-1.925,0-3.797,0-5.722c3.789,0,7.584,0,11.41,0c0-1.936,0-3.819,0-5.729
					c-9.528,0-19.043,0-28.611,0c0,1.875,0,3.759,0,5.699c-3.867,0-7.682,0-11.496,0L288.727,282.432z M323.113,265.235
					c0-1.902,0-3.804,0-5.709c-1.935,0-3.816,0-5.692,0c0,1.914,0,3.796,0,5.695c1.926,0,3.816,0,5.706,0c0,1.902,0,3.804,0,5.707
					c3.845,0,7.636,0,11.422,0c0-1.915,0-3.797,0-5.693C330.713,265.235,326.913,265.235,323.113,265.235z M311.63,265.262
					c-1.922,0-3.805,0-5.673,0c0,1.917,0,3.8,0,5.672c1.91,0,3.781,0,5.673,0C311.63,269.037,311.63,267.166,311.63,265.262z
					 M323.14,236.525c1.922,0,3.804,0,5.673,0c0-1.917,0-3.8,0-5.672c-1.91,0-3.781,0-5.673,0
					C323.14,232.75,323.14,234.621,323.14,236.525z"/>
				<path style="fill:#263238;" d="M237.14,219.326c0-13.372,0-26.71,0-40.073c13.359,0,26.697,0,40.073,0
					c0,13.341,0,26.69,0,40.073C263.877,219.326,250.528,219.326,237.14,219.326z M242.886,184.982c0,9.564,0,19.091,0,28.606
					c9.561,0,19.088,0,28.606,0c0-9.554,0-19.069,0-28.606C261.952,184.982,252.437,184.982,242.886,184.982z"/>
				<path style="fill:#263238;" d="M357.483,219.339c-13.37,0-26.708,0-40.072,0c0-13.358,0-26.696,0-40.073
					c13.339,0,26.688,0,40.072,0C357.483,192.601,357.483,205.95,357.483,219.339z M351.764,184.995c-9.566,0-19.093,0-28.606,0
					c0,9.561,0,19.088,0,28.605c9.554,0,19.07,0,28.606,0C351.764,204.059,351.764,194.544,351.764,184.995z"/>
				<path style="fill:#263238;" d="M237.153,259.515c13.372,0,26.71,0,40.073,0c0,13.359,0,26.697,0,40.073
					c-13.34,0-26.689,0-40.073,0C237.153,286.252,237.153,272.903,237.153,259.515z M271.496,265.261c-9.564,0-19.091,0-28.606,0
					c0,9.561,0,19.087,0,28.607c9.553,0,19.069,0,28.606,0C271.496,284.327,271.496,274.812,271.496,265.261z"/>
				<path style="fill:#263238;" d="M288.724,202.169c0-3.803,0-7.607,0-11.464c-1.919,0-3.803,0-5.713,0c0-3.837,0-7.62,0-11.441
					c9.522,0,19.05,0,28.609,0c0,3.789,0,7.584,0,11.415c-1.884,0-3.756,0-5.665,0c0,1.92,0,3.803,0,5.741c1.881,0,3.765,0,5.673,0
					c0,3.837,0,7.62,0,11.439c-1.884,0-3.767,0-5.705,0c0-1.884,0-3.769,0-5.688c-1.926,0-3.798,0-5.724,0c0-1.92,0-3.804,0-5.715
					c-1.925,0-3.798,0-5.724,0c0,1.873,0,3.757,0,5.7c-1.957,0-3.861,0-5.765,0L288.724,202.169z M294.474,190.66
					c1.92,0,3.802,0,5.673,0c0-1.917,0-3.799,0-5.673c-1.909,0-3.78,0-5.673,0C294.474,186.882,294.474,188.753,294.474,190.66z"/>
				<path style="fill:#263238;" d="M265.777,230.822c0,1.892,0,3.784,0,5.729c3.834,0,7.629,0,11.449,0c0,1.925,0,3.797,0,5.722
					c-5.7,0-11.405,0-17.164,0c0,3.847,0,7.642,0,11.462c-7.658,0-15.262,0-22.906,0c0-3.786,0-7.581,0-11.408
					c1.874,0,3.757,0,5.677,0c0,1.88,0,3.752,0,5.662c3.83,0,7.625,0,11.493,0c0-5.717,0-11.442,0-17.167l-0.014,0.014
					c3.826,0,7.652,0,11.478,0L265.777,230.822z"/>
				<path style="fill:#263238;" d="M288.713,282.418c0,1.892,0,3.785,0,5.73c1.919,0,3.803,0,5.723,0c0,1.925,0,3.798,0,5.723
					c1.919,0,3.803,0,5.718,0c0,1.937,0,3.82,0,5.73c-5.706,0-11.4,0-17.131,0c0-5.699,0-11.405,0-17.169c1.896,0,3.8,0,5.704,0
					L288.713,282.418z"/>
				<path style="fill:#263238;" d="M254.327,230.821c-3.802,0-7.605,0-11.46,0c0,1.916,0,3.8,0,5.711c-1.924,0-3.796,0-5.708,0
					c0-3.78,0-7.574,0-11.403c5.688,0,11.392,0,17.155,0c0,1.899,0,3.802,0,5.706L254.327,230.821z"/>
				<path style="fill:#263238;" d="M357.483,242.27c-1.907,0-3.779,0-5.687,0c0-3.806,0-7.589,0-11.426c-1.919,0-3.803,0-5.716,0
					c0-1.937,0-3.82,0-5.728c3.801,0,7.584,0,11.402,0C357.483,230.823,357.483,236.529,357.483,242.27z"/>
				<path style="fill:#263238;" d="M265.791,230.835c0-1.891,0-3.782,0-5.708c3.812,0,7.604,0,11.429,0c0,1.878,0,3.76,0,5.694
					c-3.818,0-7.63,0-11.442,0C265.777,230.822,265.791,230.835,265.791,230.835z"/>
				<path style="fill:#263238;" d="M346.057,253.768c0-1.89,0-3.781,0-5.706c1.899,0,3.781,0,5.695,0c0,1.876,0,3.758,0,5.693
					c-1.905,0-3.807,0-5.709,0L346.057,253.768z"/>
				<path style="fill:#263238;" d="M351.811,259.515c1.896,0,3.767,0,5.673,0c0,1.886,0,3.768,0,5.681c-1.882,0-3.764,0-5.673,0
					C351.811,263.314,351.811,261.443,351.811,259.515z"/>
				<path style="fill:#263238;" d="M305.924,219.369c0-1.89,0-3.781,0-5.706c1.9,0,3.781,0,5.695,0c0,1.876,0,3.758,0,5.693
					c-1.905,0-3.807,0-5.709,0L305.924,219.369z"/>
				<path style="fill:#263238;" d="M288.726,270.953c-1.891,0-3.782,0-5.707,0c0-1.901,0-3.784,0-5.72c1.902,0,3.804,0,5.707,0
					l-0.014-0.013c0,1.916,0,3.831,0,5.747L288.726,270.953z"/>
				<path style="fill:#263238;" d="M346.057,276.702c0-1.89,0-3.781,0-5.707c1.899,0,3.781,0,5.695,0c0,1.876,0,3.758,0,5.693
					c-1.905,0-3.807,0-5.709,0L346.057,276.702z"/>
				<path style="fill:#263238;" d="M340.311,236.567c1.891,0,3.782,0,5.707,0c0,1.902,0,3.784,0,5.72c-1.902,0-3.804,0-5.707,0
					l0.014,0.013c0-1.916,0-3.831,0-5.747L340.311,236.567z"/>
				<path style="fill:#263238;" d="M311.618,293.872c-1.907,0-3.778,0-5.674,0c0-1.893,0-3.764,0-5.673c1.874,0,3.757,0,5.674,0
					C311.618,290.069,311.618,291.951,311.618,293.872z"/>
				<path style="fill:#263238;" d="M323.113,293.885c0,1.89,0,3.781,0,5.707c-1.899,0-3.781,0-5.695,0c0-1.876,0-3.758,0-5.693
					c1.905,0,3.807,0,5.709,0L323.113,293.885z"/>
				<path style="fill:#263238;" d="M357.484,299.606c-1.904,0-3.775,0-5.672,0c0-1.892,0-3.763,0-5.673c1.872,0,3.755,0,5.672,0
					C357.484,295.8,357.484,297.683,357.484,299.606z"/>
				<path style="fill:#263238;" d="M311.66,248.021c-1.89,0-3.781,0-5.706,0c0-1.9,0-3.781,0-5.695c1.876,0,3.758,0,5.693,0
					c0,1.905,0,3.807,0,5.709C311.646,248.035,311.66,248.021,311.66,248.021z"/>
				<path style="fill:#263238;" d="M265.752,207.872c-5.729,0-11.423,0-17.141,0c0-5.715,0-11.409,0-17.14
					c5.698,0,11.402,0,17.141,0C265.752,196.425,265.752,202.13,265.752,207.872z"/>
				<path style="fill:#263238;" d="M328.873,207.859c0-5.728,0-11.421,0-17.14c5.715,0,11.408,0,17.14,0c0,5.696,0,11.401,0,17.14
					C340.321,207.859,334.617,207.859,328.873,207.859z"/>
				<path style="fill:#263238;" d="M248.607,288.126c0-5.728,0-11.421,0-17.14c5.715,0,11.408,0,17.14,0c0,5.697,0,11.401,0,17.14
					C260.055,288.126,254.35,288.126,248.607,288.126z"/>
			</g>
			<g>
				<polyline style="fill:none;stroke:#92E3A9;stroke-width:2;stroke-miterlimit:10;" points="253.787,165.67 228.695,165.67 
					228.695,193.358 				"/>
				<polyline style="fill:none;stroke:#92E3A9;stroke-width:2;stroke-miterlimit:10;" points="345.069,165.67 370.161,165.67 
					370.161,193.358 				"/>
				<polyline style="fill:none;stroke:#92E3A9;stroke-width:2;stroke-miterlimit:10;" points="253.787,311.491 228.695,311.491 
					228.695,283.804 				"/>
				<polyline style="fill:none;stroke:#92E3A9;stroke-width:2;stroke-miterlimit:10;" points="345.069,311.491 370.161,311.491 
					370.161,283.804 				"/>
			</g>
		</g>
	</g>
</g>
<g id="Character">
	<g>
		<path style="fill:#263238;stroke:#263238;stroke-miterlimit:10;" d="M177.416,200.333h-8.333c-1.473,0-2.667-1.194-2.667-2.667
			v-23.333c0-1.473,1.194-2.667,2.667-2.667h8.333c1.473,0,2.667,1.194,2.667,2.667v23.333
			C180.083,199.139,178.889,200.333,177.416,200.333z"/>
		<rect x="167.624" y="174.2" style="fill:#FFFFFF;stroke:#263238;stroke-miterlimit:10;" width="11.251" height="23.6"/>
		<g>
			<path style="fill:#FFFFFF;stroke:#263238;stroke-miterlimit:10;" d="M57.664,312.175c4.618,0.1,8.679-1.713,11.322-3.298
				c-0.218,6.379-0.386,11.21-0.386,11.21s1.1,1.925,1.65,2.75c0.55,0.825,5.224,3.575,5.774,6.049
				c0.55,2.475,3.025,3.85,2.75,7.424c-0.275,3.575-3.3-0.275-2.75,0.55c0.55,0.825,2.2,3.575,2.2,6.049s-5.224,2.475-7.149,0.825
				c-1.925-1.65-8.249-5.499-8.799-9.074l-2.142-7.977L57.664,312.175z"/>
			<path style="fill:#FFFFFF;stroke:#263238;stroke-miterlimit:10;" d="M69.083,332l1.333,6c0,0,4.333,3.333,4.667,5.667"/>
			<line style="fill:#FFFFFF;stroke:#263238;stroke-miterlimit:10;" x1="76.024" y1="336.86" x2="74.083" y2="333"/>
		</g>
		<g>
			<g>
				<path style="fill:#FFFFFF;stroke:#263238;stroke-miterlimit:10;" d="M90.688,458.774c0,0-1.565,12.867-0.348,14.432
					c1.217,1.565,3.13,3.478,5.912,3.825c2.782,0.348,7.477-1.217,7.477-1.217s4.695,1.391,9.737,0.869
					c5.042-0.522,8.346-2.434,8.694-4.869c0.348-2.434-3.999-3.478-6.433-6.086c-2.434-2.608-6.311-7.229-6.311-7.229l-0.992-3.378
					c0,0-5.912,2.956-9.737,3.13c-3.825,0.174-6.433-0.522-6.433-0.522L90.688,458.774z"/>
				<path style="fill:#FFFFFF;stroke:#263238;stroke-miterlimit:10;" d="M122.16,471.815c0.043-0.303,0.014-0.585-0.076-0.851
					c-1.156,0.475-2.628,1.055-4.444,1.721c-5.216,1.913-7.825,0.348-10.433,0.348c-2.608,0-2.782,2.782-10.085,0.869
					c-4.771-1.25-6.566-2.866-7.242-3.839c0.014,1.535,0.141,2.732,0.461,3.144c1.217,1.565,3.13,3.478,5.912,3.825
					c2.782,0.348,7.477-1.217,7.477-1.217s4.695,1.391,9.737,0.869C118.509,476.162,121.812,474.249,122.16,471.815z"/>
			</g>
			<path style="fill:#737373;stroke:#263238;stroke-miterlimit:10;" d="M81.416,299c0,0-7,23.5-4.5,40s14.5,47.5,14.5,47.5
				s-1.5,11.5-1.5,15.5s-3.5,11.5-1,19.5s2.5,29,2.5,30.5s-1,9.5-1,9.5s2,3,9.5,3c7.5,0,9.5-6,9.5-6s7.5-44.5,7.5-51.5s8-33,11-43.5
				s6.657-17.185,8.657-20.685S137.416,297,137.416,297l-57-5L81.416,299z"/>
		</g>
		<g>
			<g>
				<path style="fill:#FFFFFF;stroke:#263238;stroke-miterlimit:10;" d="M120.769,462.078c0,0,7.477,2.956,11.128,4.695
					s6.086,1.913,6.086,4.695c0,2.782-6.607,5.564-10.606,6.259s-10.433,0.522-11.128,0.695c-0.696,0.174-13.736,2.087-15.301-1.217
					c-1.565-3.304,0.174-14.606,0.174-14.606S110.163,464.512,120.769,462.078z"/>
				<path style="fill:#FFFFFF;stroke:#263238;stroke-miterlimit:10;" d="M116.248,478.422c0.695-0.174,7.129,0,11.128-0.695
					s10.606-3.478,10.606-6.26c0-0.412-0.059-0.761-0.162-1.072c-1.371,0.8-3.156,1.749-5.228,2.637
					c-4.869,2.086-11.302,3.478-21.039,3.304c-5.281-0.094-8.913-0.802-11.142-1.43c0.1,0.935,0.269,1.735,0.536,2.299
					C102.512,480.509,115.553,478.596,116.248,478.422z"/>
			</g>
			<path style="fill:#737373;stroke:#263238;stroke-miterlimit:10;" d="M137.916,301c0,0,3,40.5-3,71s-16,72-16.5,74
				s3.5,7.5,3.5,7.5v8c0,0-3.5,3.5-11.5,4.5s-10.5-1.5-10.5-1.5s-2-13.5-2-23s2-42,2-42s4.5-33,4-38c-0.5-5-2-20.5-2-20.5l-8-9.5"/>
		</g>
		<g>
			<g>
				<g>
					<path style="fill:#FFFFFF;stroke:#263238;stroke-miterlimit:10;" d="M53.874,293.384l15.728-2.763
						c-0.07,2.132,0.373-11.326,0.373-12.329c0-2.2,5.224-15.948,5.224-15.948s4.124,17.873,4.124,20.073
						c0,2.2-1.65,18.973,0.55,21.172c2.2,2.2,9.899,6.599,26.947,6.049c17.048-0.55,29.696-1.925,32.996-5.224
						c3.3-3.299-0.55-13.473-0.825-14.848c-0.275-1.375,4.4-37.396,4.4-37.396s18.423,19.248,29.421,16.498
						c10.999-2.75,5.774-45.644,5.774-45.644l0.55-12.374c0,0,3.575-9.074,3.575-10.449c0-1.375-3.575-11.274-3.575-11.274
						s-2.2-1.925-3.575,2.75c-1.375,4.674-1.65,7.699-1.65,7.699s-3.3,2.475-3.025,6.049c0.275,3.575,1.375,6.324,1.375,6.324
						l-7.424,24.197c0,0-8.249-9.349-8.799-10.999c-0.55-1.65-0.275-7.699-7.149-11.274c-6.874-3.574-20.897-3.849-20.897-3.849
						l-38.77,0.275c0,0-18.148,1.65-22.272,5.224c-4.125,3.575-16.773,48.944-16.773,55.818c0,2.148,1.127,8.803,2.694,17.049
						L53.874,293.384z"/>
				</g>
			</g>
			<path style="fill:none;stroke:#263238;stroke-miterlimit:10;" d="M179.137,188.927c0,0-0.825,6.874-0.275,8.249
				c0.55,1.375,1.1,4.674,0.55,7.424"/>
		</g>
		<g>
			<path style="fill:#92E3A9;stroke:#263238;stroke-miterlimit:10;" d="M172.813,268.668c10.999-2.75,5.774-45.644,5.774-45.644
				l0.123-2.777c-3.128-2.254-6.193-2.275-8.537-1.686l-5.335,17.387c0,0-8.249-9.349-8.799-10.999
				c-0.55-1.65-0.275-7.699-7.149-11.274c-6.874-3.574-20.897-3.849-20.897-3.849l-38.77,0.275c0,0-18.148,1.65-22.272,5.224
				c-4.125,3.575-16.773,48.944-16.773,55.818c0,4.078,4.065,24.417,7.486,41.033c4.618,0.1,8.679-1.713,11.322-3.298
				c0.407-11.887,0.989-29.154,0.989-30.585c0-2.2,5.224-15.948,5.224-15.948s4.124,17.873,4.124,20.073
				c0,2.2-1.65,18.973,0.55,21.172c2.2,2.2,9.899,6.599,26.947,6.049c17.048-0.55,29.696-1.925,32.996-5.224
				c3.3-3.299-0.55-13.473-0.825-14.848c-0.275-1.375,4.4-37.396,4.4-37.396S161.814,271.418,172.813,268.668z"/>
			<g>
				<polyline style="fill:none;stroke:#263238;stroke-miterlimit:10;" points="69.797,247.205 75.2,262.344 64.083,243.333 				"/>
				<line style="fill:none;stroke:#263238;stroke-miterlimit:10;" x1="66.749" y1="238.667" x2="68.659" y2="244.019"/>
				<path style="fill:none;stroke:#263238;stroke-miterlimit:10;" d="M104.832,248.283c2.433,5.462,6.015,12.305,10.251,16.717"/>
				<path style="fill:none;stroke:#263238;stroke-miterlimit:10;" d="M101.416,239.667c0,0,0.751,2.253,2.092,5.521"/>
				<path style="fill:none;stroke:#263238;stroke-miterlimit:10;" d="M107.416,258c0,0,6,12,9,14.333"/>
				<line style="fill:none;stroke:#263238;stroke-miterlimit:10;" x1="152.8" y1="243.449" x2="155.083" y2="241.333"/>
				<polyline style="fill:none;stroke:#263238;stroke-miterlimit:10;" points="149.083,240.333 143.391,252.17 150.732,245.366 				
					"/>
				<path style="fill:none;stroke:#263238;stroke-miterlimit:10;" d="M175.083,247c-0.333-2.333-10.244-11.053-10.244-11.053
					s10.244,4.053,12.91,7.72"/>
			</g>
		</g>
		<path style="fill:#FFFFFF;stroke:#263238;stroke-miterlimit:10;" d="M131.843,173.804c0,0,0.55,6.874,1.375,7.974
			c0.825,1.1,1.375,9.624,0,12.098s-2.2,5.499-3.025,6.324c-0.825,0.825-3.85,0.825-4.949,0.825c-1.1,0-13.473-0.55-13.473-0.55
			l0.275-17.323C112.045,183.153,115.07,170.23,131.843,173.804z"/>
		<path style="fill:#263238;stroke:#263238;stroke-miterlimit:10;" d="M109.845,154.557c0,0-11.274,3.575-13.748,13.473
			c-2.475,9.899,5.499,21.172,5.499,21.172s2.2,7.974,4.124,9.624c1.925,1.65,9.624,0,12.099-0.55
			c2.475-0.55,7.974-15.398,7.974-15.398s0,3.575,1.65,3.575s1.375-4.674,1.375-5.499s7.699-6.599,7.699-16.498
			c0-9.899-8.524-14.298-16.498-13.748C112.045,151.257,109.845,154.557,109.845,154.557z"/>
		<g>
			<path style="fill:#92E3A9;stroke:#263238;stroke-miterlimit:10;" d="M133.217,209.275c0,0-1.65-5.774-2.475-6.599
				c-0.825-0.825-6.049-4.124-14.573-4.674c-8.524-0.55-21.172-0.275-22.272,0.275c-1.1,0.55-1.375,5.224-1.375,5.224
				s-3.575,3.3-4.399,5.224c-0.825,1.925-1.65,2.75,6.049,9.074c7.699,6.324,11.824,8.799,19.798,6.874
				c7.974-1.925,19.523-13.473,19.523-13.473L133.217,209.275z"/>
			<path style="fill:none;stroke:#263238;stroke-miterlimit:10;" d="M113.549,213.167c7.656-2.397,15.544-7.192,15.544-7.192"/>
			<path style="fill:none;stroke:#263238;stroke-miterlimit:10;" d="M92.522,204.6c0,0,4.949,9.899,13.748,9.899
				c1.113,0,2.31-0.136,3.552-0.375"/>
		</g>
	</g>
</g>
</svg>
